<!-- Generated by IcoMoon.io -->
<svg version="1.1" xmlns="http://www.w3.org/2000/svg" width="1024" height="1024" viewBox="0 0 1024 1024">
<g id="icomoon-ignore">
</g>
<path fill="#8197ec" d="M284.848 1012.526c-3.578 0-7.853 0-11.431-0.696-9.294-1.441-17.891-2.882-27.881-6.411-17.146-5.715-32.155-13.568-42.89-20.029-23.607-13.568-47.214-30.018-72.958-51.488-11.431-9.294-22.166-19.283-32.901-29.322l-8.598-8.598c-6.411-5.715-11.431-11.431-15.754-18.587-7.853-12.176-15.009-28.626-15.754-49.351-0.696-6.411-1.441-13.568-1.441-20.725 0-15.009 0.696-30.763 2.882-46.469 4.274-32.155 15.009-60.782 22.862-82.251 0.696-2.137 1.441-3.578 2.137-5.715-2.137-5.715-4.274-11.431-6.411-17.891-11.431-32.155-18.587-67.938-22.166-103.672-3.578-37.92-2.137-75.791 2.882-113.711 1.441-7.853 2.137-15.754 4.274-23.607-15.009-21.47-33.597-52.184-45.027-87.967v-0.696c-2.137-7.157-8.598-25.744-5.019-49.351 1.441-8.598 2.882-17.146 6.411-26.44 5.715-17.146 13.568-31.459 20.029-42.194 13.568-23.607 30.018-47.214 50.792-72.213 9.294-11.431 18.587-22.166 28.626-32.155l8.598-8.598c4.274-5.019 9.294-9.294 15.009-12.872 12.176-9.294 29.322-17.146 52.929-17.891 7.157-0.696 15.754-1.441 23.607-1.441h0.696c15.754 0 32.155 1.441 47.91 3.578 24.303 3.578 47.214 10.735 66.497 17.891 12.872-5.715 26.44-10.735 40.753-15.754 33.597-11.431 69.379-18.587 105.113-20.725 37.92-2.882 75.791-1.441 112.27 5.019 8.598 1.441 17.146 2.882 25.744 5.019 29.322-20.029 55.762-33.597 82.947-42.89h0.696c6.411-2.137 20.029-6.411 37.92-6.411 3.578 0 7.853 0 11.431 0.696 9.294 1.441 17.891 2.882 27.881 6.411 17.146 5.715 32.155 13.568 42.89 20.029 23.607 13.568 47.214 30.018 72.958 51.488 11.431 9.294 22.166 19.283 32.901 29.322l8.598 8.598c4.274 3.578 8.598 7.853 11.431 12.872 11.431 14.313 20.029 34.342 20.029 62.919 0.696 9.99 0.696 20.029 0 30.763-1.441 22.862-4.274 44.331-9.99 64.36-4.274 15.009-9.294 29.322-15.009 44.331 11.431 27.881 19.283 55.762 24.303 85.085 11.431 60.782 9.99 123.701-3.578 184.482 7.853 11.431 15.754 22.862 21.47 33.597 10.735 18.587 19.283 37.92 25.048 57.203 2.137 7.157 7.853 25.744 4.274 50.792-1.441 8.598-3.578 16.45-6.411 25.744-11.431 31.459-28.626 57.203-43.635 78.673-16.45 23.607-35.734 46.469-55.762 67.193l-7.157 7.157c-4.274 5.019-9.294 9.294-15.009 13.568-12.176 9.294-29.322 16.45-52.929 17.891-7.157 0.696-15.754 1.441-23.607 1.441h-0.696c-16.45 0-33.597-1.441-50.792-4.274-27.881-4.274-52.184-12.872-74.35-21.47-11.431 5.019-24.303 9.294-35.734 12.872-34.342 10.735-70.771 17.146-107.25 19.283-37.92 2.137-75.791-0.696-112.966-7.157-4.274-0.696-9.294-2.137-13.568-2.137-32.155 22.862-60.782 37.92-90.104 47.214h-0.696c-5.715 0.696-19.283 5.715-37.175 5.715v0zM163.285 837.338l65.056 22.862c5.715-15.754 6.411-33.597 2.137-49.351 0 1.441 0 2.882 0.696 4.274 0 2.137 0.696 4.274 0.696 6.411-0.696-12.176-5.019-28.626-15.754-42.89-4.274-5.715-9.294-10.735-15.009-15.009l2.882 2.137 5.715 5.715c-5.019-5.019-10.735-9.99-16.45-14.313l-30.018 80.065zM773.941 808.76c-5.019 5.019-9.99 9.99-14.313 16.45l73.654 28.626v-68.634c-6.411 0-13.568 0.696-20.029 2.137 1.441 0 2.137 0 3.578 0 2.137 0 4.274-0.696 6.411-0.696-11.431 0.696-25.744 4.274-39.312 12.872-7.157 5.019-13.568 10.735-19.283 17.891l2.137-2.882 7.157-5.715zM231.925 792.31c2.882 2.137 6.411 5.019 9.294 7.853 15.754 13.568 30.763 24.303 44.331 32.155 8.598-4.274 18.587-10.735 29.322-18.587 2.882-2.137 5.715-4.274 8.598-6.411 2.137-1.441 2.882-2.882 5.019-4.274 0.696-0.696 2.137-2.137 2.137-2.137l37.92-38.616 51.488 17.891c2.137 0.696 3.578 1.441 5.019 2.137 11.431 3.578 22.166 6.411 33.597 8.598 22.862 4.274 47.214 6.411 70.075 4.274 22.166-1.441 45.027-5.715 65.801-11.431 10.735-2.882 20.725-6.411 30.763-11.431 5.019-2.137 9.99-4.274 14.313-6.411 12.176-6.411 26.44-9.99 40.753-9.99 22.166 0 38.616 7.853 47.214 12.176 2.137 1.441 5.019 2.137 7.853 2.882 15.754 6.411 33.597 13.568 49.351 15.754 2.137 0.696 5.715 0.696 7.853 1.441 9.294-10.735 17.891-21.47 25.744-32.901 5.019-6.411 9.99-13.568 14.313-20.029-0.696-1.441-1.441-2.137-2.137-4.274-4.274-7.157-9.294-15.009-15.754-24.303-2.137-2.882-4.274-5.715-6.411-8.598-1.441-1.441-2.137-2.137-2.882-3.578-25.048-24.303-33.597-60.086-22.166-92.937 0.696-2.137 1.441-3.578 2.137-5.019 14.313-44.331 16.45-92.241 8.598-137.318-4.274-21.47-10.735-42.89-20.029-63.664-0.696-2.137-2.137-3.578-2.137-5.715-20.029-37.92-11.431-69.379-4.274-85.085 2.882-6.411 5.715-12.872 7.853-19.283 5.019-11.431 8.598-24.303 12.176-35.038 1.441-5.715 2.137-11.431 2.882-17.891-2.882-2.137-6.411-5.019-9.294-7.853-16.45-13.568-30.763-24.303-44.331-32.155-8.598 5.019-18.587 11.431-29.322 18.587-2.882 2.137-6.411 5.019-9.294 7.157-0.696 0.696-2.137 1.441-2.137 2.137-16.45 15.754-38.616 24.303-61.478 24.303-11.431 0-21.47-2.137-32.155-6.411-2.137-0.696-5.019-2.137-7.157-2.137-11.431-2.882-22.166-6.411-33.597-7.853-22.862-3.578-47.214-5.019-70.075-2.882-22.166 2.137-44.331 6.411-65.056 12.872-10.735 2.882-20.029 7.157-30.018 11.431-5.019 2.137-9.294 4.274-14.313 6.411l-2.137 1.441c-12.872 7.157-28.626 11.431-42.89 11.431-13.568 0-27.185-2.882-40.057-9.294-2.882-1.441-5.715-2.137-8.598-3.578-15.009-6.411-32.901-12.872-47.91-15.009-2.137-0.696-5.019-0.696-6.411-1.441-2.137 2.882-5.019 6.411-7.157 8.598-13.568 16.45-24.303 30.763-32.155 45.027 4.274 8.598 10.735 17.891 17.891 29.322 2.137 2.882 4.274 6.411 6.411 8.598 1.441 2.137 2.882 2.882 4.274 5.019l35.734 37.92-15.754 49.351c-1.441 2.882-2.137 6.411-2.882 9.294-2.882 11.431-5.715 22.862-7.157 34.342-3.578 23.607-4.274 47.214-2.137 70.771 2.137 22.166 6.411 44.331 14.313 65.056 3.578 10.735 7.853 20.029 12.176 30.018 0.696 1.441 1.441 2.137 2.137 3.578 12.872 26.44 12.872 55.762-0.696 82.947-1.441 2.137-2.137 5.019-2.882 7.157-2.137 6.411-5.715 12.176-7.853 18.587-5.019 13.568-11.431 29.322-12.872 43.635-2.882 0.696-3.578 2.882-3.578 3.578v0zM812.557 249.549c5.019 5.019 10.735 9.99 17.146 15.009l30.018-79.369-65.056-22.862c-5.715 15.754-6.411 33.597-2.137 49.351 0-0.696 0-1.441 0-2.137 0-2.137 0-5.019 0-7.853v-0.696c0 9.294 2.882 24.303 12.872 39.312 5.019 6.411 10.735 12.872 17.146 18.587l-2.882-2.137-7.157-7.157zM191.868 173.062v68.634c6.411 0 13.568-0.696 20.029-2.137-1.441 0-2.137 0-3.578 0-2.137 0-4.274 0.696-6.411 0.696 11.431-0.696 25.744-4.274 39.312-12.872 7.157-5.019 13.568-10.735 19.283-17.891l-2.137 2.882-5.715 6.411c5.019-5.019 9.99-10.735 14.313-16.45l-75.095-29.322z"></path>
<path fill="#8197ec" d="M358.46 555.595l4.274 174.492-42.89-35.038c-47.91 78.673-63.664 154.464-40.753 210.226l7.853 20.029-20.029-8.598c-45.027-20.029-85.83-47.214-119.426-82.947l-2.137-2.137-0.696-2.882c-2.137-21.47-1.441-45.027 4.274-69.379v-0.696c7.853-30.018 20.029-60.782 34.342-90.8 9.294-19.283 20.029-37.92 32.901-56.507l-37.92-30.763 180.208-25.048z"></path>
<path fill="#8197ec" d="M664.548 467.677l-4.274-174.492 42.89 35.038c47.91-78.673 63.664-154.464 40.753-210.226l-7.853-20.029 20.029 8.598c45.027 20.029 85.83 47.214 119.426 82.947l2.137 2.137 0.696 2.882c2.137 21.47 1.441 45.027-4.274 69.379v0.696c-7.853 30.018-20.029 60.782-34.342 90.8-9.294 19.283-20.029 37.92-32.901 56.507l37.92 30.763-180.208 25.048z"></path>
<path fill="#8197ec" d="M557.254 660.708l174.492-4.274-35.038 42.89c78.673 47.91 154.464 63.664 210.226 40.753l20.029-7.853-8.598 20.029c-20.029 45.027-47.214 85.83-82.947 119.426l-2.137 2.137-2.882 0.696c-21.47 2.137-45.027 1.441-69.379-4.274h-0.696c-30.018-7.853-60.782-20.029-90.8-34.342-19.283-9.294-37.92-20.029-56.507-32.901l-30.763 37.92-25.048-180.208z"></path>
<path fill="#8197ec" d="M468.591 366.142l-174.492 4.274 35.038-42.89c-78.673-47.91-154.464-63.664-210.226-40.753l-19.283 7.853 8.598-20.029c20.029-45.027 47.214-85.83 82.947-119.426l2.137-2.137 2.882-0.696c21.47-2.137 45.027-1.441 69.379 4.274h0.696c30.018 7.853 60.782 20.029 90.8 34.342 19.283 9.294 37.92 20.029 56.507 32.901l30.763-37.92 24.303 180.208z"></path>
<path fill="#8197ec" d="M886.211 509.126c0 206.145-167.094 373.239-373.239 373.239s-373.239-167.094-373.239-373.239c0-206.145 167.094-373.239 373.239-373.239s373.239 167.094 373.239 373.239z"></path>
<path fill="#fff" d="M377.089 377.573c-21.47-9.99-37.92-20.029-53.625-31.459-24.303-17.146-47.214-36.479-66.497-56.507-47.214-47.214-71.517-96.515-65.056-136.573l-14.313 15.754c-33.597 35.734-78.673 98.702-79.369 125.838 0.696 2.882 0.696 2.882 0.696 2.882 6.411 20.725 15.754 42.194 30.018 62.223v0.696c18.587 29.322 55.066 78.673 184.482 135.131l-22.862 42.89 174.492-47.214-62.223-163.758-25.744 50.047z"></path>
<path fill="#fff" d="M648.097 648.581c21.47 9.99 37.92 20.029 53.625 31.459 24.303 17.146 47.214 36.479 66.497 56.507 47.214 47.214 71.517 96.515 65.056 136.573l14.313-15.009c33.597-35.734 78.673-98.702 79.369-125.838-0.696-2.882-0.696-2.882-0.696-2.882-6.411-20.725-15.754-42.194-30.018-62.223v-0.696c-18.587-29.322-55.066-78.673-184.482-135.131l22.862-42.89-174.492 47.214 62.919 161.62 25.048-48.606z"></path>
<path fill="#fff" d="M652.378 376.132c9.99-21.47 20.029-37.92 31.459-53.625 17.146-24.303 36.479-47.214 56.507-66.497 47.214-47.214 96.515-71.517 136.573-65.056l-15.009-14.313c-35.734-33.597-98.702-78.673-125.838-79.369-2.882 0.696-2.882 0.696-2.882 0.696-20.725 6.411-42.194 15.754-62.223 30.018h-0.696c-29.322 18.587-78.673 55.066-135.131 184.482l-42.89-22.862 47.214 174.492 163.013-61.478-50.047-26.44z"></path>
<path fill="#fff" d="M369.939 647.14c-9.99 21.47-20.029 37.92-31.459 53.625-17.146 24.303-36.479 47.214-56.507 66.497-47.214 47.214-96.515 71.517-136.573 65.056l15.009 14.313c35.734 33.597 98.702 78.673 125.838 79.369 2.882-0.696 2.882-0.696 2.882-0.696 20.725-6.411 42.194-15.754 62.223-30.018h0.696c29.322-18.587 78.673-55.066 135.131-184.482l42.89 22.862-47.214-174.492-162.317 61.478 49.351 26.44z"></path>
<path fill="#000" d="M1235.885 820.191h-36.479v-612.787h52.184l183.786 516.968v-517.713h37.175v612.787h-44.331l-192.335-545.594v546.29z"></path>
<path fill="#000" d="M1745.007 491.284v37.175h-167.336v255.999h201.629v37.175h-241.686v-613.532h241.686v37.175h-201.629v246.705h167.336z"></path>
<path fill="#000" d="M1995.986 534.87l-124.446 285.321h-39.312l138.014-317.477-128.72-294.615h42.194l115.103 263.155 116.544-263.155h37.92l-128.72 294.615 137.318 317.477h-42.89l-123.004-285.321z"></path>
<path fill="#000" d="M2259.142 672.188c0 65.056 24.303 116.544 92.241 116.544s92.241-50.792 92.241-116.544v-464.784h37.92v463.343c0 87.222-37.175 154.464-130.857 154.464s-131.553-67.193-131.553-154.464v-463.343h40.057v464.784z"></path>
<path fill="#000" d="M2803.991 355.407v12.872h-38.616v-15.754c0-65.056-24.303-114.407-91.545-114.407-66.497 0-91.545 47.91-91.545 112.966 0 148.748 221.657 151.582 221.657 320.359 0 87.967-37.92 153.023-132.298 153.023s-132.298-65.056-132.298-153.023v-31.459h37.92v33.597c0 65.056 25.048 112.966 92.241 112.966s92.241-47.214 92.241-112.966c0-147.307-221.657-150.141-221.657-320.359 0-92.241 40.057-151.582 130.857-152.327 95.123 1.441 132.994 66.497 132.994 154.464z"></path>
<path fill="#8197ec" d="M3069.283 642.866l65.056-435.462h133.739v612.787h-91.545v-439.040l-66.497 439.785h-91.545l-71.517-433.324v433.324h-83.643v-613.532h133.739l72.213 435.462z"></path>
<path fill="#8197ec" d="M3326.723 354.662c0-97.957 51.488-154.464 145.866-154.464s145.866 55.762 145.866 154.464v318.918c0 97.957-51.488 154.464-145.866 154.464s-145.866-55.762-145.866-154.464v-318.918zM3423.239 680.040c0 43.635 19.283 60.782 50.047 60.782s50.047-16.45 50.047-60.782v-331.094c0-43.635-19.283-60.782-50.047-60.782s-50.047 16.45-50.047 60.782v331.094z"></path>
<path fill="#8197ec" d="M3677.1 207.404h152.327c96.515 0 143.729 53.625 143.729 151.582v310.32c0 97.957-47.214 151.582-143.729 151.582h-152.327v-613.532zM3772.92 294.626v437.599h54.321c30.763 0 48.606-15.754 48.606-60.086v-318.222c0-43.635-18.587-60.086-48.606-60.086h-54.321z"></path>
<path fill="#8197ec" d="M4159.030 200.247c93.682 0 141.592 55.762 141.592 154.464v19.283h-90.8v-25.048c0-43.635-17.146-60.782-47.91-60.782s-47.91 16.45-47.91 60.782c0 125.838 188.061 150.141 188.061 325.329 0 97.957-49.351 154.464-143.729 154.464s-143.729-55.762-143.729-154.464v-37.92h91.545v43.635c0 43.635 19.283 60.086 50.047 60.086s50.047-15.754 50.047-60.086c0-125.838-188.061-150.141-188.061-325.329-0.696-97.957 47.214-154.464 140.847-154.464z"></path>
</svg>
